# AST/ASF file generated using VICON BodyLanguage
# -----------------------------------------------
:version 1.10
:name VICON
:units
  mass 1.0
  length 0.45
  angle deg
:documentation
   .ast/.asf automatically generated from VICON data using
   VICON BodyBuilder and BodyLanguage model FoxedUp or BRILLIANT.MOD
:root
   order TX TY TZ RX RY RZ
   axis XYZ
   position 0 0 0  
   orientation 0 0 0 
:bonedata
  begin
     id 1 
     name lhipjoint
     direction 0.678564 -0.644259 0.352817 
     length 2.99514 
     axis 0 0 0  XYZ
  end
  begin
     id 2 
     name lfemur
     direction 0.34202 -0.939693 0  
     length 7.29983  
     axis 0 0 20  XYZ
    dof rx ry rz
    limits (-160.0 20.0)
           (-70.0 70.0)
           (-60.0 70.0)
  end
  begin
     id 3 
     name ltibia
     direction 0.34202 -0.939693 0   
     length 8.59502   
     axis 0 0 20   XYZ
    dof rx
    limits (-10.0 170.0)
  end
  begin
     id 4 
     name lfoot
     direction 0.256607 -0.705022 0.661133   
     length 2.92136   
     axis -90 7.62852e-016 20   XYZ
    dof rx rz
    limits (-45.0 90.0)
           (-70.0 20.0)
  end
  begin
     id 5 
     name ltoes
     direction 1.53673e-011 -4.22167e-011 1   
     length 1.31421   
     axis -90 7.62852e-016 20   XYZ
    dof rx
    limits (-90.0 20.0)
  end
  begin
     id 6 
     name rhipjoint
     direction -0.664671 -0.655307 0.358867   
     length 2.94464  
     axis 0 0 0  XYZ 
  end
  begin
     id 7 
     name rfemur
     direction -0.34202 -0.939693 0   
     length 7.1902   
     axis 0 0 -20   XYZ
    dof rx ry rz
    limits (-160.0 20.0)
           (-70.0 70.0)
           (-70.0 60.0)
  end
  begin
     id 8 
     name rtibia
     direction -0.342306 -0.939589 0   
     length 7.92304   
     axis 0 0 -20   XYZ
    dof rx
    limits (-10.0 170.0)
 end
 begin
     id 9 
     name rfoot
     direction -0.135083 -0.371136 0.9187   
     length 2.14777  
     axis -90 -7.62852e-016 -20   XYZ
    dof rx rz
    limits (-45.0 90.0)
           (-20.0 70.0)
  end
  begin
     id 10 
     name rtoes
     direction -1.53535e-011 -4.21537e-011 1   
     length 1.05997   
     axis -90 -7.62852e-016 -20   XYZ
    dof rx
    limits (-90.0 20.0)
  end
  begin
     id 11 
     name lowerback
     direction -0.0195507 0.995133 0.0965771   
     length 2.09792   
     axis 0 0 0   XYZ
    dof rx ry rz
    limits (-20.0 45.0)
           (-30.0 30.0)
           (-30.0 30.0)
  end
  begin
     id 12 
     name upperback
     direction 0.00551419 0.999637 0.0263729   
     length 2.10514   
     axis 0 0 0   XYZ
    dof rx ry rz
    limits (-20.0 45.0)
           (-30.0 30.0)
           (-30.0 30.0)
  end
  begin
     id 13 
     name thorax
     direction 0.0138853 0.999728 -0.0187549   
     length 2.12411   
     axis 0 0 0   XYZ
    dof rx ry rz
    limits (-20.0 45.0)
           (-30.0 30.0)
           (-30.0 30.0)
  end
  begin
     id 14 
     name lowerneck
     direction 0.00575564 0.995441 0.0952053   
     length 2.98955   
     axis 0 0 0   XYZ
    dof rx ry rz
    limits (-20.0 45.0)
           (-30.0 30.0)
           (-30.0 30.0)
  end
  begin
     id 15 
     name upperneck
     direction 0.0362743 0.998452 -0.0421753   
     length 3.03688   
     axis 0 0 0   XYZ
    dof rx ry rz
    limits (-20.0 45.0)
           (-30.0 30.0)
           (-30.0 30.0)
  end
  begin
     id 16
     name head
     direction -0.0138164 0.799054 0.6011  
     length 1.47017  
     axis 0 0 0   XYZ
    dof rx ry rz
    limits (-20.0 45.0)
           (-30.0 30.0)
           (-30.0 30.0)
  end
  begin
     id 17 
     name lclavicle
     direction 0.925636 0.378361 -0.006363  
     length 3.33831  
     axis 0 0 0   XYZ
    dof ry rz
    limits (-20.0 10.0)
           (0.0 20.0)
  end
  begin
     id 18 
     name lhumerus
     direction 1 -4.48983e-011 -5.50319e-028   
     length 4.79344   
     axis -180 -30 -90   XYZ
    dof rx ry rz
    limits (-60.0 90.0)
           (-90.0 90.0)
           (-90.0 90.0)
  end
  begin
     id 19
     name lradius
     direction 1 -4.48905e-011 9.20478e-027   
     length 2.94221   
     axis -180 -30 -90   XYZ
    dof rx
    limits (-10.0 170.0)
  end
  begin
     id 20
     name lwrist
     direction 1 -4.4898e-011 2.08228e-026   
     length 1.4711   
     axis -1.38353e-014 90 90   XYZ
    dof ry
    limits (-180.0 0.0)
 end
  begin
     id 21 
     name lhand
     direction 1 -4.48957e-011 4.16456e-026   
     length 0.889984   
     axis -2.65735e-014 90 90   XYZ
    dof rx rz
    limits (-90.0 90.0)
           (-45.0 45.0)
  end
  begin
     id 22 
     name lfingers
     direction 1 -4.49044e-011 8.32913e-026   
     length 0.717528   
     axis -5.3147e-014 90 90   XYZ
    dof rx
    limits (0.0 90.0)
  end
  begin
     id 23
     name lthumb
     direction 0.707107 -6.35171e-011 0.707107   
     length 1.03023   
     axis -90 45 2.85299e-015   XYZ
    dof rx rz
    limits (-45.0 45.0)
           (-45.0 45.0)
  end
  begin
     id 24 
     name rclavicle
     direction -0.892514 0.445149 0.0725343   
     length 3.17271  
     axis 0 0 0   XYZ 
    dof ry rz
    limits (-10.0 20.0)
           (-20.0 0.0)
  end
  begin
     id 25 
     name rhumerus
     direction -1 -4.48952e-011 5.59695e-028  
     length 5.4863   
     axis -180 30 90   XYZ
    dof rx ry rz
    limits (-90.0 60.0)
           (-90.0 90.0)
           (-90.0 90.0)
  end
  begin
     id 26 
     name rradius
     direction -1 -4.48963e-011 1.14146e-026   
     length 3.17201   
     axis -180 30 90   XYZ
    dof rx
    limits (-10.0 170.0)
  end
  begin
     id 27 
     name rwrist
     direction -1 -4.49046e-011 2.08228e-026   
     length 1.58601   
     axis -1.38353e-014 -90 -90   XYZ
    dof ry
    limits (-180.0 0.0)
  end
  begin
     id 28
     name rhand
     direction -1 -4.48815e-011 4.16456e-026   
     length 0.874513   
     axis -2.65735e-014 -90 -90   XYZ
    dof rx rz
    limits (-90.0 90.0)
           (-45.0 45.0)
  end
  begin
     id 29
     name rfingers
     direction -1 -4.48918e-011 8.32913e-026   
     length 0.705055   
     axis -5.3147e-014 -90 -90   XYZ
    dof rx
    limits (0.0 90.0)
  end
  begin
     id 30
     name rthumb
     direction -0.707107 -6.34858e-011 0.707107   
     length 1.01232   
     axis -90 -45 -2.85299e-015   XYZ
    dof rx rz
    limits (-45.0 45.0)
           (-45.0 45.0)
  end
:hierarchy
  begin
    root lhipjoint rhipjoint lowerback
    lhipjoint lfemur
    lfemur ltibia
    ltibia lfoot
    lfoot ltoes
    rhipjoint rfemur
    rfemur rtibia
    rtibia rfoot
    rfoot rtoes
    lowerback upperback
    upperback thorax
    thorax lowerneck lclavicle rclavicle
    lowerneck upperneck
    upperneck head
    lclavicle lhumerus
    lhumerus lradius
    lradius lwrist
    lwrist lhand lthumb
    lhand lfingers
    rclavicle rhumerus
    rhumerus rradius
    rradius rwrist
    rwrist rhand rthumb
    rhand rfingers
  end

#!OML:ASF F:\VICON\USERDATA\INSTALL\rory3\rory3.ASF
:FULLY-SPECIFIED
:DEGREES
1231
root 3.97252 18.4253 -0.804339 -17.4658 88.7763 -31.3971
lowerback -13.8465 -1.25705 -1.56679
upperback -7.46401 -1.11369 1.782
thorax -0.0262751 -0.312636 2.59055
lowerneck -9.70786 -13.2037 2.8723
upperneck 7.94849 41.8615 4.86544
head 29.5111 36.7675 182.203
rclavicle -1.88845e-015 -7.15625e-015
rhumerus 0.947165 -0.50173 -20.6302
rradius 110.983
rwrist -9.69238
rhand -34.1456 -18.7561
rfingers 7.12502
rthumb -7.3201 -48.6095
lclavicle -1.88845e-015 -7.15625e-015
lhumerus 4.92941 11.8854 31.401
lradius 114.646
lwrist 12.7589
lhand -21.1372 6.91123
lfingers 7.12502
lthumb 5.24184 36.8264
rfemur -10.2222 18.5025 18.2975
rtibia 11.227
rfoot -20.2864 -19.8041
rtoes -13.0322
lfemur -11.3972 -4.3201 -22.34
ltibia 15.7472
lfoot -2.71576 5.98013
ltoes -10.2561
1232
root 3.97382 18.4216 -0.80503 -16.8427 88.8208 -30.6091
lowerback -13.8871 -1.24737 -1.54413
upperback -7.44028 -1.10374 1.73967
thorax 0.0187121 -0.310306 2.53429
lowerneck -9.47391 -13.2946 2.73888
upperneck 7.89774 41.4849 4.78225
head 29.3052 36.52 182.18
rclavicle -8.44835e-015 1.35174e-014
rhumerus 2.15649 1.52977 -20.3794
rradius 111.795
rwrist -9.22764
rhand -32.9637 -18.1403
rfingers 7.12502
rthumb -6.17921 -48.0301
lclavicle -8.44835e-015 1.35174e-014
lhumerus 5.86311 10.0505 31.4067
lradius 115.267
lwrist 12.1293
lhand -20.6002 6.71914
lfingers 7.12502
lthumb 5.76032 36.6208
rfemur -10.0301 18.4289 18.3177
rtibia 11.2574
rfoot -20.3614 -19.7099
rtoes -13.1926
lfemur -11.215 -4.35984 -22.3944
ltibia 15.7601
lfoot -2.72202 6.00323
ltoes -10.2513
1233
root 3.97371 18.4176 -0.806347 -25.7181 88.8053 -39.3251
lowerback -13.8623 -1.22428 -1.31935
upperback -7.48923 -1.09554 1.73813
thorax -0.0502356 -0.309647 2.4073
lowerneck -9.16199 -13.3616 2.6001
upperneck 7.96265 41.3124 4.81646
head 29.1984 36.5868 182.126
rclavicle 1.3418e-015 -1.59028e-015
rhumerus 3.39227 3.52104 -20.041
rradius 112.584
rwrist -8.62237
rhand -31.9108 -17.308
rfingers 7.12502
rthumb -5.16262 -47.2251
lclavicle 1.3418e-015 -1.59028e-015
lhumerus 6.92637 8.0827 31.2831
lradius 115.779
lwrist 11.2972
lhand -20.3251 6.54908
lfingers 7.12502
lthumb 6.02592 36.4434
rfemur -9.84428 18.3009 18.5742
rtibia 11.2955
rfoot -20.4446 -19.609
rtoes -13.8187
lfemur -11.0597 -4.32137 -22.2349
ltibia 15.7997
lfoot -2.79888 6.09099
ltoes -10.1657
1234
root 3.96955 18.4148 -0.807001 -29.1476 88.779 -42.5967
lowerback -13.7612 -1.22944 -1.22113
upperback -7.57519 -1.10895 1.72743
thorax -0.195777 -0.315268 2.34031
lowerneck -8.79332 -13.4379 2.49254
upperneck 8.02491 41.1019 4.82659
head 29.049 36.4377 182.073
rclavicle 7.50412e-015 -8.15017e-015
rhumerus 4.78294 5.46179 -19.5751
rradius 113.242
rwrist -7.6764
rhand -30.9844 -15.6952
rfingers 7.12502
rthumb -4.26807 -45.6322
lclavicle 7.50412e-015 -8.15017e-015
lhumerus 8.12176 6.21187 31.0019
lradius 116.106
lwrist 10.2328
lhand -20.0018 6.14905
lfingers 7.12502
lthumb 6.33812 36.0342
rfemur -9.69278 18.2032 18.7204
rtibia 11.3294
rfoot -20.4441 -19.5534
rtoes -13.8507
lfemur -10.927 -4.28287 -22.1677
ltibia 15.8586
lfoot -2.81116 6.09614
ltoes -10.1325
1235
root 3.9653 18.4135 -0.806633 -25.5466 88.7884 -38.8486
lowerback -13.6342 -1.24242 -1.28398
upperback -7.67589 -1.11388 1.70323
thorax -0.368633 -0.31184 2.3518
lowerneck -8.39153 -13.5241 2.31824
upperneck 8.04352 40.7838 4.7708
head 28.8287 36.1449 182.028
rclavicle -4.32357e-015 4.37326e-015
rhumerus 6.38398 7.29701 -18.9865
rradius 113.757
rwrist -6.51919
rhand -30.0957 -13.7243
rfingers 7.12502
rthumb -3.40989 -43.6768
lclavicle -4.32357e-015 4.37326e-015
lhumerus 9.36147 4.4749 30.6297
lradius 116.413
lwrist 9.25596
lhand -19.3086 5.61655
lfingers 7.12502
lthumb 7.00727 35.4806
rfemur -9.53368 18.2142 18.6935
rtibia 11.3171
rfoot -20.4061 -19.5775
rtoes -13.6666
lfemur -10.8284 -4.31849 -22.2483
ltibia 15.9645
lfoot -2.71929 6.08757
ltoes -10.1079
1236
root 3.96131 18.4106 -0.806295 -23.2502 88.7463 -36.3962
lowerback -13.5142 -1.22132 -1.29493
upperback -7.74206 -1.08239 1.70413
thorax -0.503758 -0.292669 2.36464
lowerneck -8.04043 -13.5493 2.03441
upperneck 8.07376 40.5594 4.74027
head 28.6293 36.1171 181.917
rclavicle -8.89561e-015 1.98785e-015
rhumerus 8.18414 8.91418 -18.2516
rradius 114.258
rwrist -5.49262
rhand -29.5562 -11.9075
rfingers 7.12502
rthumb -2.88884 -41.8676
lclavicle -8.89561e-015 1.98785e-015
lhumerus 10.7319 2.97657 30.1981
lradius 116.747
lwrist 8.84838
lhand -18.5844 5.27807
lfingers 7.12502
lthumb 7.7063 35.1177
rfemur -9.40104 18.2678 18.7103
rtibia 11.3638
rfoot -20.3916 -19.544
rtoes -13.6688
lfemur -10.7036 -4.29222 -22.2847
ltibia 16.0444
lfoot -2.66589 6.1142
ltoes -10.1581
1237
root 3.95607 18.4079 -0.805399 -25.8003 88.7162 -38.8204
lowerback -13.4649 -1.20268 -1.22898
upperback -7.77382 -1.06343 1.72737
thorax -0.565226 -0.283048 2.3548
lowerneck -7.76011 -13.5472 1.77237
upperneck 8.1443 40.5204 4.7591
head 28.5498 36.3292 181.847
rclavicle 1.49089e-015 -5.56597e-015
rhumerus 10.0846 10.153 -17.3772
rradius 114.861
rwrist -4.78828
rhand -28.9756 -10.4423
rfingers 7.12502
rthumb -2.32812 -40.4093
lclavicle 1.49089e-015 -5.56597e-015
lhumerus 12.2443 1.66211 29.5943
lradius 117.119
lwrist 8.87104
lhand -18.0797 5.19795
lfingers 7.12502
lthumb 8.19344 35.0191
rfemur -9.32411 18.2423 18.8286
rtibia 11.4644
rfoot -20.4144 -19.4893
rtoes -13.8256
lfemur -10.6097 -4.23462 -22.2288
ltibia 16.1027
lfoot -2.72394 6.16271
ltoes -10.2314
1238
root 3.9518 18.4046 -0.805409 -25.8865 88.6971 -38.7979
lowerback -13.462 -1.19007 -1.2201
upperback -7.79008 -1.04638 1.73468
thorax -0.584841 -0.273747 2.35974
lowerneck -7.46921 -13.5853 1.5571
upperneck 8.16406 40.3139 4.7308
head 28.4053 36.3431 181.804
rclavicle 7.95139e-016 -2.78299e-015
rhumerus 12.0617 10.9833 -16.4817
rradius 115.482
rwrist -4.17918
rhand -28.2179 -9.29425
rfingers 7.12502
rthumb -1.59637 -39.268
lclavicle 7.95139e-016 -2.78299e-015
lhumerus 13.8733 0.539131 28.9658
lradius 117.376
lwrist 8.81737
lhand -17.7077 5.06513
lfingers 7.12502
lthumb 8.55239 34.8719
rfemur -9.25339 18.2076 18.8864
rtibia 11.5552
rfoot -20.4066 -19.481
rtoes -13.8566
lfemur -10.5443 -4.16038 -22.2331
ltibia 16.1817
lfoot -2.74465 6.22386
ltoes -10.1366
1239
root 3.9482 18.402 -0.807698 -23.4883 88.6945 -36.3194
lowerback -13.4475 -1.19796 -1.24961
upperback -7.83263 -1.05058 1.74943
thorax -0.636551 -0.272525 2.39169
lowerneck -7.18515 -13.6085 1.32403
upperneck 8.17144 40.1181 4.6811
head 28.2712 36.3721 181.807
rclavicle 2.03754e-015 0
rhumerus 14.143 11.6129 -15.5632
rradius 115.86
rwrist -3.0277
rhand -28.312 -8.3606
rfingers 7.12502
rthumb -1.68721 -38.3337
lclavicle 2.03754e-015 0
lhumerus 15.4868 -0.260393 28.3892
lradius 117.422
lwrist 8.46593
lhand -17.4579 5.01349
lfingers 7.12502
lthumb 8.79348 34.8103
rfemur -9.23081 18.0459 18.8672
rtibia 11.6673
rfoot -20.3771 -19.3504
rtoes -13.8057
lfemur -10.4985 -4.10356 -22.308
ltibia 16.262
lfoot -2.73697 6.28345
ltoes -10.0695
1240
root 3.94268 18.4011 -0.8082 -22.035 88.6585 -34.7944
lowerback -13.3966 -1.19535 -1.26939
upperback -7.85335 -1.04467 1.79562
thorax -0.684902 -0.266924 2.45247
lowerneck -7.01468 -13.6111 1.09116
upperneck 8.13602 39.9385 4.59776
head 28.1518 36.3917 181.826
rclavicle 4.72114e-015 4.37326e-015
rhumerus 16.1907 11.9621 -14.6456
rradius 116.036
rwrist -1.33868
rhand -29.1714 -7.387
rfingers 7.12502
rthumb -2.51727 -37.3519
lclavicle 4.72114e-015 4.37326e-015
lhumerus 17.1872 -0.701019 27.968
lradius 117.211
lwrist 7.82458
lhand -17.1607 4.91025
lfingers 7.12502
lthumb 9.08026 34.6948
rfemur -9.28046 17.949 18.8749
rtibia 11.8641
rfoot -20.4464 -19.2066
rtoes -13.6919
lfemur -10.448 -4.10806 -22.3289
ltibia 16.2952
lfoot -2.70337 6.27972
ltoes -10.1152
